<svg xmlns="http://www.w3.org/2000/svg" enable-background="new 0 0 64 64" viewBox="0 0 64 64" id="bathtub">
<path fill="#07364B" d="M31 15.1c.1.1.2.1.4.1.4 0 .7-.2.9-.6l.7-1.6c.2-.5 0-1.1-.5-1.3-.5-.2-1.1 0-1.3.5l-.7 1.6C30.3 14.3 30.5 14.9 31 15.1zM35.4 13.4c-.5-.2-1.1 0-1.3.5l-.7 1.6c-.2.5 0 1.1.5 1.3.1.1.2.1.4.1.4 0 .7-.2.9-.6l.7-1.6C36.1 14.2 35.9 13.6 35.4 13.4zM39.4 14.5c-.5-.2-1.1 0-1.3.5l-.7 1.6c-.2.5 0 1.1.5 1.3.1.1.2.1.4.1.4 0 .7-.2.9-.6l.7-1.6C40.2 15.2 39.9 14.7 39.4 14.5zM38.8 21c-.5-.2-1.1 0-1.3.5l-.7 1.6c-.2.5 0 1.1.5 1.3.1.1.2.1.4.1.4 0 .7-.2.9-.6l.7-1.6C39.6 21.8 39.3 21.2 38.8 21zM42.6 18c-.5-.2-1.1 0-1.3.5l-.7 1.6c-.2.5 0 1.1.5 1.3.1.1.2.1.4.1.4 0 .7-.2.9-.6l.7-1.6C43.3 18.8 43.1 18.2 42.6 18zM41.6 23.3l-.7 1.6c-.2.5 0 1.1.5 1.3.1.1.2.1.4.1.4 0 .7-.2.9-.6l.7-1.6c.2-.5 0-1.1-.5-1.3C42.4 22.5 41.8 22.8 41.6 23.3zM45.2 20.4c.4 0 .7-.2.9-.6l.7-1.6c.2-.5 0-1.1-.5-1.3-.5-.2-1.1 0-1.3.5l-.7 1.6c-.2.5 0 1.1.5 1.3C45 20.4 45.1 20.4 45.2 20.4zM36.6 18.5l-.7 1.6c-.2.5 0 1.1.5 1.3.1.1.2.1.4.1.4 0 .7-.2.9-.6l.7-1.6c.2-.5 0-1.1-.5-1.3C37.4 17.8 36.8 18 36.6 18.5zM32.7 21c-.2.5 0 1.1.5 1.3.1.1.2.1.4.1.4 0 .7-.2.9-.6l.7-1.6c.2-.5 0-1.1-.5-1.3-.5-.2-1.1 0-1.3.5L32.7 21zM29.8 21.2c.1.1.2.1.4.1.4 0 .7-.2.9-.6l.7-1.6c.2-.5 0-1.1-.5-1.3-.5-.2-1.1 0-1.3.5L29.3 20C29.1 20.5 29.3 21 29.8 21.2z"></path><path fill="#07364B" d="M60.5,30.5h-2.4V8.2c0-4.5-3.7-8.2-8.2-8.2c-2.6,0-5,1.2-6.6,3.3c-2.7-0.8-5.7,0.2-7.3,2.5l-0.2-0.1
		c-0.5-0.2-1.1,0-1.3,0.5L33.4,9c-0.1,0.2-0.1,0.5,0,0.7c0.1,0.2,0.3,0.4,0.5,0.5l12.5,5.5c0.1,0.1,0.3,0.1,0.4,0.1
		c0.4,0,0.7-0.2,0.9-0.6l1.3-2.9c0.1-0.2,0.1-0.5,0-0.7c-0.1-0.2-0.3-0.4-0.5-0.5l-0.2-0.1c0.6-2.7-0.7-5.5-3-7
		c1.2-1.4,2.9-2.2,4.7-2.2c3.5,0,6.3,2.8,6.3,6.3v22.3H22.6l-1.4-3.1c-0.4-1-1.4-1.6-2.5-1.6h-8.5c-1.1,0-2,0.6-2.5,1.6l-1.4,3.1h-3
		C1.5,30.5,0,32.1,0,34c0,1.9,1.5,3.5,3.5,3.5h0.9l4.3,17.5c0.5,2,2.2,3.3,4.3,3.3h0.4l1.9,3.8c0.4,0.7,1.1,1.2,1.9,1.2
		c0.8,0,1.6-0.5,1.9-1.2l1.9-3.8h22l1.9,3.8c0.4,0.7,1.1,1.2,1.9,1.2c0.8,0,1.6-0.5,1.9-1.2l1.9-3.8H51c2,0,3.8-1.4,4.3-3.3
		l4.3-17.5h0.9c1.9,0,3.5-1.5,3.5-3.5C64,32.1,62.5,30.5,60.5,30.5z M46.2,13.7L35.5,8.9L36,7.8l10.7,4.7c0,0,0,0,0,0L46.2,13.7z
		 M46.4,10.3l-8.5-3.7c1.3-1.5,3.5-2,5.5-1.2c0,0,0.1,0,0.1,0C45.5,6.3,46.6,8.3,46.4,10.3z M9.6,28.2c0.1-0.3,0.4-0.4,0.7-0.4h8.5
		c0.3,0,0.6,0.2,0.7,0.4l1,2.4H8.6L9.6,28.2z M17.4,61.1c-0.1,0.2-0.3,0.2-0.4,0l-1.5-2.9h3.3L17.4,61.1z M47,61.1
		c-0.1,0.2-0.3,0.2-0.4,0l-1.5-2.9h3.3L47,61.1z M53.4,54.4c-0.3,1.1-1.3,1.9-2.4,1.9H13c-1.1,0-2.1-0.8-2.4-1.9l-4.2-17h51.2
		L53.4,54.4z M60.5,35.5H3.5c-0.8,0-1.5-0.7-1.5-1.5c0-0.8,0.7-1.5,1.5-1.5h53.7c0,0,0,0,0,0s0,0,0,0h3.3c0.8,0,1.5,0.7,1.5,1.5
		C62.1,34.8,61.4,35.5,60.5,35.5z"></path></svg>