<svg xmlns="http://www.w3.org/2000/svg" data-name="Layer 1" viewBox="0 0 64 64" id="sofa"><line x1="59.5" x2="59.5" y1="49.97" y2="54.81" fill="none" stroke="#3c3b72" stroke-linecap="round" stroke-linejoin="round" stroke-width="3"></line><line x1="4.47" x2="4.47" y1="49.97" y2="54.81" fill="none" stroke="#3c3b72" stroke-linecap="round" stroke-linejoin="round" stroke-width="3"></line><path fill="#c4c8d1" stroke="#3c3b72" stroke-linecap="round" stroke-linejoin="round" stroke-width="3" d="M3,49.78H61a3,3,0,0,0,3-3v-21a2,2,0,0,0-2-2H57a2,2,0,0,0-2,2V39.83a1,1,0,0,1-1,1H10a1,1,0,0,1-1-1V25.77a2,2,0,0,0-2-2H2a2,2,0,0,0-2,2l0,21A3,3,0,0,0,3,49.78Z"></path><path fill="#c4c8d1" stroke="#3c3b72" stroke-linecap="round" stroke-linejoin="round" stroke-width="3" d="M32,40.83H10a1,1,0,0,1-1-1V25.77a2,2,0,0,0-2-2H4.49V15.19a6,6,0,0,1,6-6h43a6,6,0,0,1,6,6v8.58H57a2,2,0,0,0-2,2V39.83a1,1,0,0,1-1,1H32Z"></path><path fill="#dee3e7" stroke="#3c3b72" stroke-linecap="round" stroke-linejoin="round" stroke-width="3" d="M8.95,32.52h46.1a0,0,0,0,1,0,0v7.31a1,1,0,0,1-1,1H9.95a1,1,0,0,1-1-1V32.52A0,0,0,0,1,8.95,32.52Z"></path></svg>